<?xml version="1.0" encoding="UTF-8" ?>
<!DOCTYPE svg PUBLIC "-//W3C//DTD SVG 1.1//EN" "http://www.w3.org/Graphics/SVG/1.1/DTD/svg11.dtd">
<svg width="1200pt" height="630pt" viewBox="0 0 1200 630" version="1.1" xmlns="http://www.w3.org/2000/svg">
<g id="#020202ff">
</g>
<g id="#ffffffff">
<path fill="#ffffff" opacity="1.00" d=" M 374.70 88.44 C 525.37 88.27 676.05 88.42 826.73 88.37 C 826.69 155.07 826.81 221.78 826.68 288.48 C 818.79 295.97 811.29 303.85 803.51 311.44 C 802.59 312.54 801.04 313.41 801.24 315.08 C 810.04 322.96 817.83 331.95 826.63 339.84 C 826.87 396.21 826.66 452.59 826.73 508.97 C 826.64 519.45 826.91 529.93 826.59 540.40 C 721.73 540.30 616.88 540.39 512.03 540.36 C 466.47 540.43 420.90 540.22 375.35 540.46 L 375.57 539.53 L 374.66 539.45 C 374.76 473.22 374.79 406.99 374.64 340.76 C 380.73 333.85 387.60 327.66 394.01 321.05 C 396.10 318.99 398.02 316.73 400.40 314.99 C 400.39 314.61 400.38 313.84 400.37 313.46 C 391.67 305.16 383.38 296.45 374.77 288.07 C 374.65 221.53 374.79 154.99 374.70 88.44 M 403.42 273.05 C 403.05 275.95 406.47 277.02 407.87 279.10 C 408.87 280.09 409.88 281.09 410.88 282.10 C 411.88 283.10 412.89 284.09 413.88 285.11 C 414.88 286.10 415.88 287.10 416.88 288.11 C 417.88 289.10 418.89 290.08 419.86 291.12 C 421.91 293.07 423.91 295.07 425.88 297.11 C 426.89 298.09 427.90 299.08 428.88 300.10 C 429.88 301.09 430.88 302.10 431.88 303.11 C 433.46 304.62 434.96 306.21 436.40 307.88 C 438.51 312.53 438.62 318.92 434.55 322.57 C 424.18 332.92 413.88 343.34 403.43 353.60 C 403.37 406.28 403.48 458.95 403.38 511.63 C 535.05 511.55 666.72 511.59 798.39 511.61 C 798.31 459.02 798.40 406.42 798.34 353.83 C 791.31 347.15 784.61 340.12 777.66 333.35 C 773.93 329.41 769.86 325.80 766.26 321.75 C 762.53 317.54 762.53 310.53 766.48 306.47 C 777.07 295.75 787.84 285.21 798.39 274.46 C 798.32 221.85 798.38 169.25 798.36 116.64 C 666.71 116.68 535.06 116.71 403.41 116.63 C 403.42 168.77 403.41 220.91 403.42 273.05 Z" />
<path fill="#ffffff" opacity="1.00" d=" M 524.01 167.00 C 532.04 167.00 540.07 167.00 548.11 167.00 C 561.58 210.01 575.06 253.01 588.58 296.00 C 579.22 295.99 569.85 296.01 560.49 295.99 C 558.27 287.38 555.86 278.82 553.73 270.18 C 541.95 270.12 530.17 270.13 518.39 270.18 C 516.20 278.81 513.85 287.39 511.58 296.00 C 502.33 295.98 493.07 296.04 483.82 295.97 C 497.17 252.97 510.59 209.98 524.01 167.00 M 536.00 202.37 C 532.13 217.60 528.05 232.77 524.17 248.00 C 532.05 248.00 539.94 248.00 547.83 248.00 C 543.95 232.77 539.87 217.60 536.00 202.37 Z" />
<path fill="#ffffff" opacity="1.00" d=" M 642.21 167.01 C 650.98 167.00 659.76 167.00 668.53 167.01 C 668.52 203.00 668.53 239.00 668.53 275.00 C 683.67 275.00 698.82 274.99 713.96 275.00 C 713.96 282.00 713.96 289.00 713.96 296.00 C 690.04 296.00 666.13 296.00 642.21 296.00 C 642.22 253.00 642.21 210.00 642.21 167.01 Z" />
<path fill="#ffffff" opacity="1.00" d=" M 521.01 333.00 C 529.05 333.00 537.08 333.00 545.11 333.00 C 558.58 376.01 572.06 419.01 585.58 462.00 C 576.22 462.00 566.85 462.00 557.49 462.00 C 555.27 453.38 552.86 444.82 550.73 436.18 C 538.95 436.12 527.17 436.13 515.39 436.18 C 513.20 444.81 510.86 453.39 508.58 462.00 C 499.33 461.99 490.08 462.04 480.82 461.97 C 494.16 418.96 507.60 375.99 521.01 333.00 M 521.17 414.00 C 529.05 414.00 536.94 414.00 544.83 414.00 C 540.95 398.75 536.84 383.56 533.00 368.31 C 529.16 383.56 525.04 398.75 521.17 414.00 Z" />
<path fill="#ffffff" opacity="1.00" d=" M 639.21 333.00 C 647.99 333.03 656.78 332.93 665.57 333.05 C 678.06 361.16 690.87 389.12 703.31 417.25 C 703.19 389.17 703.29 361.09 703.26 333.01 C 712.02 333.00 720.78 332.99 729.54 333.01 C 729.52 376.00 729.52 419.00 729.54 461.99 C 720.75 462.00 711.96 462.01 703.17 461.99 C 690.63 433.88 677.74 405.92 665.48 377.70 C 665.60 405.80 665.49 433.90 665.53 462.00 C 656.76 462.00 647.98 462.01 639.21 461.99 C 639.21 419.00 639.22 376.00 639.21 333.00 Z" />
</g>
</svg>
